# xmcd
#
# Track frame offsets: 
#        150
#        13785
#        27980
#        41277
#        54850
#        68875
#        82660
#        96537
#        110845
#        124297
#        137815
#        151775
#        166270
#        179547
#        193507
#        206257
#        219787
#        231672
#        245027
#        258022
#        271085
#        283652
#        295075
#        307830
#        321620
#        334415
#
# Disc length: 4658 seconds
#
# Revision: 0
# Processed by: cddbd v1.5.2PL0 Copyright (c) Steve Scherf et al.
# Submitted via: ExactAudioCopy v0.95b4
#
DISCID=7912301a
DTITLE=Blind Lemon Jefferson - Long Lonesome Blues: Lemon's Text's Rev
DTITLE=ealed
DYEAR=1900
DGENRE=Blues
TTITLE0=Rabbit Foot Blues
TTITLE1=Shuckin' Sugar Blues
TTITLE2=Booster Blues
TTITLE3=Dry Southern Blues
TTITLE4=Long Lonesome Blues
TTITLE5=Got the Blues
TTITLE6=Black Horse Blues
TTITLE7=Corrina Blues
TTITLE8=Old Rounder's Blues
TTITLE9=Beggin' Back
TTITLE10=That Black Snake Moan
TTITLE11=Stocking Feet Blues
TTITLE12=Bad Luck Blues
TTITLE13=Broke and Hungry
TTITLE14=Chinch Bug Blues
TTITLE15=Deceitful Brownskin Blues
TTITLE16=Electric Chair Blues
TTITLE17=See That My Grave Is Kept Clean
TTITLE18=Low Down Mojo Blues
TTITLE19=Jock o' Diamond Blues
TTITLE20=Chock House Blues
TTITLE21=Change My Luck  Blues
TTITLE22=Lemon's Cannon Ball  Blues
TTITLE23=Lemon's Worried  Blues
TTITLE24=Prison Cell  Blues
TTITLE25=Long Distance Woman
EXTD=
EXTT0=
EXTT1=
EXTT2=
EXTT3=
EXTT4=
EXTT5=
EXTT6=
EXTT7=
EXTT8=
EXTT9=
EXTT10=
EXTT11=
EXTT12=
EXTT13=
EXTT14=
EXTT15=
EXTT16=
EXTT17=
EXTT18=
EXTT19=
EXTT20=
EXTT21=
EXTT22=
EXTT23=
EXTT24=
EXTT25=
PLAYORDER=
